<svg width="94" height="28" viewBox="0 0 94 28" fill="none" xmlns="http://www.w3.org/2000/svg">
<path d="M60.5903 2.29102C62.538 2.29104 64.1544 2.51975 65.4165 3.00098L65.8745 3.17969C66.9288 3.60524 67.8869 4.10038 68.7466 4.66699L69.1157 4.91016L68.9194 5.30664L67.1431 8.8916L66.9116 9.3584L66.4546 9.1084C65.5746 8.62654 64.6748 8.22848 63.7554 7.91504L63.7524 7.91406C62.8692 7.60597 62.0527 7.45801 61.3003 7.45801C60.4684 7.45805 59.8417 7.60568 59.3843 7.86328L59.1978 7.98047C58.7713 8.28072 58.5386 8.72861 58.5386 9.41211C58.5386 9.82523 58.6909 10.2088 59.0386 10.5771C59.445 10.9621 59.9668 11.3195 60.6138 11.6436H60.6147C61.3106 11.9809 62.0282 12.2871 62.7671 12.5615H62.7681L63.3003 12.7725C63.824 12.991 64.3408 13.2404 64.8511 13.5195L65.1235 13.6621C65.7509 14.0073 66.318 14.4327 66.8228 14.9375H66.8218C67.4137 15.5078 67.8783 16.2225 68.2222 17.0693L68.3472 17.3975C68.6174 18.1823 68.7456 19.099 68.7456 20.1357C68.7456 21.3517 68.4492 22.4906 67.8589 23.5439L67.7368 23.7539C67.06 24.874 66.0735 25.7725 64.7993 26.4551L64.7935 26.459L64.7925 26.458C63.4976 27.1285 61.9283 27.4511 60.106 27.4512C59.1697 27.4512 58.2129 27.3619 57.2378 27.1846L57.2251 27.1826C56.2691 26.9825 55.3252 26.6933 54.394 26.3164L54.3853 26.3125C53.4489 25.9112 52.5474 25.4102 51.6812 24.8105L51.3052 24.5508L51.5308 24.1533L53.5981 20.5029L53.8745 20.0146L54.3276 20.3457C54.8623 20.7364 55.4394 21.0872 56.0591 21.3975C56.6982 21.6853 57.3349 21.9105 57.9692 22.0742L58.4341 22.1816C58.8868 22.2729 59.304 22.3164 59.686 22.3164C60.2003 22.3164 60.7161 22.2471 61.2349 22.1074C61.7379 21.9565 62.128 21.7199 62.4233 21.4072L62.4331 21.3975C62.7043 21.1263 62.8677 20.7281 62.8677 20.1357C62.8676 19.7871 62.7528 19.468 62.4995 19.1641L62.4937 19.1572L62.4888 19.1514C62.2342 18.824 61.866 18.5067 61.3667 18.207L61.3589 18.2021C60.8723 17.898 60.3307 17.6316 59.7339 17.4053H59.7329C59.1743 17.1917 58.6044 16.9535 58.0229 16.6914L57.437 16.4219C56.6311 16.0413 55.8698 15.5819 55.1538 15.0449L55.147 15.04L55.1401 15.0342C54.4209 14.4541 53.8305 13.7473 53.3696 12.918L53.3657 12.9102L53.3618 12.9033C52.9078 12.0192 52.6929 10.9671 52.6929 9.76758C52.6929 8.31505 53.0112 7.0284 53.6675 5.92676L53.6714 5.91992L54.0972 6.18262L53.6724 5.91992C54.3461 4.8282 55.2852 3.97168 56.4771 3.35156L56.7026 3.23438C57.8435 2.66533 59.1353 2.35422 60.5679 2.29102H60.5903ZM5.87939 1.45117L6.01807 1.72461L13.9517 17.3223L21.4995 1.7334L21.6362 1.45117H26.8423V27.1924H21.1587V16.9277L14.3149 26.6572L14.1655 26.8701H13.5864L13.437 26.6631L6.88037 17.5967V27.1924H1.35791V1.45117H5.87939ZM49.2026 2.41992V7.94238H37.6714V12.0137H47.8784V17.5352H37.6714V21.6709H49.6548V27.1924H31.9878V2.41992H49.2026ZM82.3384 1.5L82.4644 1.81445L84.0063 5.67676L84.0864 5.62207L84.0337 5.74707L92.3228 26.5078L92.5962 27.1924H86.0913L85.9663 26.876L84.2583 22.542H77.0405L75.2319 26.8848L75.104 27.1924H69.4136L69.687 26.5078L79.5356 1.81445L79.6606 1.5H82.3384ZM79.0981 17.6006H82.311L80.7485 13.6357L79.0981 17.6006Z" fill="white" stroke="#54B0DE"/>
</svg>
