<svg width="94" height="27" viewBox="0 0 94 27" fill="none" xmlns="http://www.w3.org/2000/svg">
<path d="M60.5903 1.33984C62.538 1.33987 64.1544 1.56858 65.4165 2.0498L65.8745 2.22852C66.9288 2.65407 67.8869 3.14921 68.7466 3.71582L69.1157 3.95898L68.9194 4.35547L67.1431 7.94043L66.9116 8.40723L66.4546 8.15723C65.5746 7.67537 64.6748 7.27731 63.7554 6.96387L63.7524 6.96289C62.8692 6.6548 62.0527 6.50684 61.3003 6.50684C60.4684 6.50688 59.8417 6.6545 59.3843 6.91211L59.1978 7.0293C58.7713 7.32955 58.5386 7.77743 58.5386 8.46094C58.5386 8.87405 58.6909 9.25765 59.0386 9.62598C59.445 10.0109 59.9668 10.3684 60.6138 10.6924H60.6147C61.3106 11.0297 62.0282 11.3359 62.7671 11.6104H62.7681L63.3003 11.8213C63.824 12.0399 64.3408 12.2893 64.8511 12.5684L65.1235 12.7109C65.7509 13.0561 66.318 13.4816 66.8228 13.9863H66.8218C67.4137 14.5567 67.8783 15.2713 68.2222 16.1182L68.3472 16.4463C68.6174 17.2312 68.7456 18.1479 68.7456 19.1846C68.7456 20.4005 68.4492 21.5394 67.8589 22.5928L67.7368 22.8027C67.06 23.9229 66.0735 24.8213 64.7993 25.5039L64.7935 25.5078L64.7925 25.5068C63.4976 26.1773 61.9283 26.4999 60.106 26.5C59.1697 26.5 58.2129 26.4107 57.2378 26.2334L57.2251 26.2314C56.2691 26.0314 55.3252 25.7421 54.394 25.3652L54.3853 25.3613C53.4489 24.9601 52.5474 24.4591 51.6812 23.8594L51.3052 23.5996L51.5308 23.2021L53.5981 19.5518L53.8745 19.0635L54.3276 19.3945C54.8623 19.7852 55.4394 20.136 56.0591 20.4463C56.6982 20.7342 57.3349 20.9594 57.9692 21.123L58.4341 21.2305C58.8868 21.3217 59.304 21.3652 59.686 21.3652C60.2003 21.3652 60.7161 21.2959 61.2349 21.1562C61.7379 21.0054 62.128 20.7687 62.4233 20.4561L62.4331 20.4463C62.7043 20.1751 62.8677 19.7769 62.8677 19.1846C62.8676 18.8359 62.7528 18.5168 62.4995 18.2129L62.4937 18.2061L62.4888 18.2002C62.2342 17.8729 61.866 17.5555 61.3667 17.2559L61.3589 17.251C60.8723 16.9469 60.3307 16.6805 59.7339 16.4541H59.7329C59.1743 16.2405 58.6044 16.0023 58.0229 15.7402L57.437 15.4707C56.6311 15.0902 55.8698 14.6307 55.1538 14.0938L55.147 14.0889L55.1401 14.083C54.4209 13.503 53.8305 12.7961 53.3696 11.9668L53.3657 11.959L53.3618 11.9521C52.9078 11.068 52.6929 10.0159 52.6929 8.81641C52.6929 7.36388 53.0112 6.07723 53.6675 4.97559L53.6714 4.96875L54.0972 5.23145L53.6724 4.96875C54.3461 3.87703 55.2852 3.0205 56.4771 2.40039L56.7026 2.2832C57.8435 1.71415 59.1353 1.40305 60.5679 1.33984H60.5903ZM5.87939 0.5L6.01807 0.773438L13.9517 16.3711L21.4995 0.782227L21.6362 0.5H26.8423V26.2412H21.1587V15.9766L14.3149 25.7061L14.1655 25.9189H13.5864L13.437 25.7119L6.88037 16.6455V26.2412H1.35791V0.5H5.87939ZM49.2026 1.46875V6.99121H37.6714V11.0625H47.8784V16.584H37.6714V20.7197H49.6548V26.2412H31.9878V1.46875H49.2026ZM82.3384 0.548828L82.4644 0.863281L84.0063 4.72559L84.0864 4.6709L84.0337 4.7959L92.3228 25.5566L92.5962 26.2412H86.0913L85.9663 25.9248L84.2583 21.5908H77.0405L75.2319 25.9336L75.104 26.2412H69.4136L69.687 25.5566L79.5356 0.863281L79.6606 0.548828H82.3384ZM79.0981 16.6494H82.311L80.7485 12.6846L79.0981 16.6494Z" fill="black" stroke="#54B0DE"/>
</svg>
